# xmcd CD database file
#
# Track frame offsets:
#	150
#	14689
#	35936
#	54720
#	66774
#	82086
#	95373
#	109763
#	123387
#	136217
#	152356
#	165323
#	175638
#	187871
#	206996
#
# Disc length: 2939 seconds
#
# Revision: 0
# Processed by: cddbd v1.5.2PL0 Copyright (c) Steve Scherf et al.
# Submitted via: CDex 1.70beta2
#
DISCID=c90b790f
DTITLE=Varios - A Favorita Sertanejo
DYEAR=2008
DGENRE=Country
TTITLE0=Tem que Ser Voce - Victor e Leo
TTITLE1=Sinonimos - Chitaozinho e Xororo e Ze Ramalho
TTITLE2=Dificil Nao Falar de Amor - Daniel
TTITLE3=Por Favor, Reza pra Nois - Leonardo
TTITLE4=A Chapa Vai Esquentar - Rud and Robson
TTITLE5=Talvez - Cesar Menotti and Fabiano
TTITLE6=De Tanto Te Querer - Jorge and Mateus
TTITLE7=Se é pra Falar de Amor - Mateus and Cristiano
TTITLE8=Ainda Ontem Chorei de Saudade - Edson and Hudson
TTITLE9=Cabecinha no Ombro - Bruno and Marrone
TTITLE10=Vida Louca - Rionegro and Solimoes
TTITLE11=Meu Primeiro Amor  (Lejania) - Roberta Miranda
TTITLE12=Saudade de Matao - Chitaozinho e Xororo
TTITLE13=Andorinha - Vistor and Renan
TTITLE14=Mala Pronta - Hugo Pena and Gabriel
EXTD=YEAR: 2008
EXTT0=
EXTT1=
EXTT2=
EXTT3=
EXTT4=
EXTT5=
EXTT6=
EXTT7=
EXTT8=
EXTT9=
EXTT10=
EXTT11=
EXTT12=
EXTT13=
EXTT14=
PLAYORDER=
